<svg width="13" height="13" viewBox="0 0 13 13" fill="none" xmlns="http://www.w3.org/2000/svg">
<path d="M3.62375 10.8018C3.95417 10.9803 4.78833 11.2273 6.5 11.2273C8.21167 11.2273 9.04583 10.9803 9.37625 10.8018C9.05937 10.7333 8.294 10.6364 6.5 10.6364C4.706 10.6364 3.94062 10.7333 3.62375 10.8018Z" fill="black"/>
<path d="M3.62375 10.8018C3.95417 10.9803 4.78833 11.2273 6.5 11.2273C8.21167 11.2273 9.04583 10.9803 9.37625 10.8018C9.05937 10.7333 8.294 10.6364 6.5 10.6364C4.706 10.6364 3.94062 10.7333 3.62375 10.8018Z" fill="url(#paint0_linear_228_261)"/>
<path d="M11.9167 8.27273C11.8035 8.27273 11.6025 8.30759 11.1946 8.38027C10.2467 8.54927 8.48088 8.86364 6.5 8.86364C4.51912 8.86364 2.75329 8.54927 1.80538 8.38027C1.3975 8.30759 1.19654 8.27273 1.08333 8.27273C0.618583 8.27273 0 8.42577 0 9.75C0 11.3904 3.21967 13 6.5 13C9.78033 13 13 11.3904 13 9.75C13 8.42577 12.3814 8.27273 11.9167 8.27273ZM10.0582 10.8568C9.89733 11.4589 8.56754 11.8182 6.5 11.8182C4.43246 11.8182 3.10267 11.4589 2.94179 10.8568C2.90063 10.702 2.94017 10.546 3.04363 10.439C3.172 10.2694 3.68225 10.0455 6.5 10.0455C9.31775 10.0455 9.828 10.2694 9.95638 10.439C10.0598 10.5454 10.0994 10.7014 10.0582 10.8568Z" fill="black"/>
<path d="M11.9167 8.27273C11.8035 8.27273 11.6025 8.30759 11.1946 8.38027C10.2467 8.54927 8.48088 8.86364 6.5 8.86364C4.51912 8.86364 2.75329 8.54927 1.80538 8.38027C1.3975 8.30759 1.19654 8.27273 1.08333 8.27273C0.618583 8.27273 0 8.42577 0 9.75C0 11.3904 3.21967 13 6.5 13C9.78033 13 13 11.3904 13 9.75C13 8.42577 12.3814 8.27273 11.9167 8.27273ZM10.0582 10.8568C9.89733 11.4589 8.56754 11.8182 6.5 11.8182C4.43246 11.8182 3.10267 11.4589 2.94179 10.8568C2.90063 10.702 2.94017 10.546 3.04363 10.439C3.172 10.2694 3.68225 10.0455 6.5 10.0455C9.31775 10.0455 9.828 10.2694 9.95638 10.439C10.0598 10.5454 10.0994 10.7014 10.0582 10.8568Z" fill="url(#paint1_linear_228_261)"/>
<path d="M10.829 0.979136C10.1346 0.613364 8.64987 0 6.5 0C4.35012 0 2.86542 0.613364 2.17154 0.979136C1.83896 1.15405 1.65371 1.54995 1.7225 1.94173C2.02258 3.65477 2.16558 9.40432 2.16667 9.46223C2.171 9.62591 2.31129 9.74705 2.44454 9.75C2.59133 9.74586 2.70671 9.61409 2.70671 9.45455H10.2928C10.2928 9.61409 10.4081 9.74586 10.5549 9.75H10.5625C10.7088 9.75 10.829 9.62296 10.8333 9.46223C10.8344 9.40432 10.9774 3.65418 11.2775 1.94114C11.3463 1.54995 11.161 1.15405 10.829 0.979136ZM9.73483 7.99618C9.69583 8.11791 9.59075 8.19414 9.47917 8.19414C9.44938 8.19414 9.41958 8.18882 9.38979 8.17759C8.44837 7.81832 6.51246 7.761 6.49296 7.76041C6.487 7.761 4.55162 7.81773 3.61021 8.17759C3.46937 8.23195 3.31446 8.15041 3.26517 7.99618C3.21588 7.84195 3.29008 7.67355 3.43146 7.61977C4.45304 7.22977 6.41063 7.17245 6.49296 7.17009C6.58938 7.17245 8.54696 7.23036 9.56854 7.61977C9.70992 7.67355 9.78413 7.84195 9.73483 7.99618Z" fill="black"/>
<path d="M10.829 0.979136C10.1346 0.613364 8.64987 0 6.5 0C4.35012 0 2.86542 0.613364 2.17154 0.979136C1.83896 1.15405 1.65371 1.54995 1.7225 1.94173C2.02258 3.65477 2.16558 9.40432 2.16667 9.46223C2.171 9.62591 2.31129 9.74705 2.44454 9.75C2.59133 9.74586 2.70671 9.61409 2.70671 9.45455H10.2928C10.2928 9.61409 10.4081 9.74586 10.5549 9.75H10.5625C10.7088 9.75 10.829 9.62296 10.8333 9.46223C10.8344 9.40432 10.9774 3.65418 11.2775 1.94114C11.3463 1.54995 11.161 1.15405 10.829 0.979136ZM9.73483 7.99618C9.69583 8.11791 9.59075 8.19414 9.47917 8.19414C9.44938 8.19414 9.41958 8.18882 9.38979 8.17759C8.44837 7.81832 6.51246 7.761 6.49296 7.76041C6.487 7.761 4.55162 7.81773 3.61021 8.17759C3.46937 8.23195 3.31446 8.15041 3.26517 7.99618C3.21588 7.84195 3.29008 7.67355 3.43146 7.61977C4.45304 7.22977 6.41063 7.17245 6.49296 7.17009C6.58938 7.17245 8.54696 7.23036 9.56854 7.61977C9.70992 7.67355 9.78413 7.84195 9.73483 7.99618Z" fill="url(#paint2_linear_228_261)"/>
<defs>
<linearGradient id="paint0_linear_228_261" x1="13" y1="0" x2="-2.26889" y2="3.74201" gradientUnits="userSpaceOnUse">
<stop stop-color="#00A3FF"/>
<stop offset="1" stop-color="#006DAA"/>
</linearGradient>
<linearGradient id="paint1_linear_228_261" x1="13" y1="0" x2="-2.26889" y2="3.74201" gradientUnits="userSpaceOnUse">
<stop stop-color="#00A3FF"/>
<stop offset="1" stop-color="#006DAA"/>
</linearGradient>
<linearGradient id="paint2_linear_228_261" x1="13" y1="0" x2="-2.26889" y2="3.74201" gradientUnits="userSpaceOnUse">
<stop stop-color="#00A3FF"/>
<stop offset="1" stop-color="#006DAA"/>
</linearGradient>
</defs>
</svg>
