<svg width="13" height="13" viewBox="0 0 13 13" fill="none" xmlns="http://www.w3.org/2000/svg">
<path d="M1.92635 0.395906L4.48496 2.95452H0.0531813C0.143616 2.41128 0.360189 1.89682 0.685505 1.45246C1.01082 1.0081 1.43581 0.64623 1.92635 0.395906ZM5.36541 2.79118e-07H3.54542C3.43315 2.79118e-07 3.32088 0.00590931 3.20861 0.0118183L6.15131 2.95452H8.31992L5.36541 2.79118e-07ZM9.45446 2.79118e-07H7.04357L9.99809 2.95452H12.9467C12.8083 2.12848 12.3814 1.37829 11.742 0.837324C11.1026 0.296358 10.292 -0.000332189 9.45446 2.79118e-07ZM5.60289 9.82436L8.55741 8.19938C8.65018 8.14848 8.72757 8.07357 8.78148 7.98251C8.83538 7.89145 8.86382 7.78757 8.86382 7.68175C8.86382 7.57593 8.83538 7.47205 8.78148 7.38099C8.72757 7.28992 8.65018 7.21502 8.55741 7.16412L5.60289 5.53913C5.51292 5.48965 5.41162 5.46447 5.30896 5.46606C5.2063 5.46766 5.10582 5.49597 5.01744 5.54822C4.92905 5.60047 4.85581 5.67485 4.80492 5.76402C4.75403 5.85319 4.72725 5.95409 4.72723 6.05676V9.30673C4.72725 9.40941 4.75403 9.5103 4.80492 9.59948C4.85581 9.68865 4.92905 9.76303 5.01744 9.81528C5.10582 9.86752 5.2063 9.89584 5.30896 9.89743C5.41162 9.89903 5.51292 9.87384 5.60289 9.82436ZM12.9999 4.13633V9.45446C12.9991 10.3945 12.6254 11.2959 11.9606 11.9606C11.2959 12.6254 10.3945 12.9991 9.45446 12.9999H3.54542C2.60535 12.9991 1.70399 12.6254 1.03926 11.9606C0.374527 11.2959 0.000751158 10.3945 0 9.45446V4.13633H12.9999Z" fill="#E34343"/>
</svg>
